<svg width="166px" height="32px" viewBox="0 0 166 32" version="1.1" xmlns="http://www.w3.org/2000/svg" xmlns:xlink="http://www.w3.org/1999/xlink">
    <defs></defs>
    <g stroke="none" stroke-width="1" fill="none" fill-rule="evenodd">
        <g id="resolute" transform="translate(-21.000000, -21.000000)" fill="#FFFFFF" fill-rule="nonzero">
            <g id="resolute-logo" transform="translate(21.000000, 21.000000)">
                <path d="M5.82,2.52 L5.2,2.52 L5.2,8.1 L5.8,8.1 C7.98,8.1 8.96,7.18 8.96,5.24 C8.96,3.48 7.84,2.52 5.82,2.52 Z M0,1.18 L7.08,1.18 C10.8,1.18 12.52,2.76 12.52,5.24 C12.52,7.1 11.16,8.38 9.52,8.78 L12.02,12.52 C12.72,13.62 13.22,13.94 14.24,13.96 L14.24,15.22 L10,15.22 C9.4,14.72 8.9,14.1 8.32,13.1 L6.08,9.38 L5.2,9.38 L5.2,12.58 C5.2,13.68 5.5,13.9 6.82,13.96 L6.82,15.22 L0,15.22 L0,13.96 C1.34,13.9 1.66,13.68 1.66,12.58 L1.66,3.82 C1.66,2.72 1.34,2.5 0,2.48 L0,1.18 Z M20.38,4.1 C23.22,4.1 24.7,6.14 24.7,8.66 L24.7,9.4 L18.04,9.4 C18.04,11.5 19.34,12.82 21.2,12.82 C22.52,12.82 23.44,12.3 24.14,11.4 L24.74,11.78 C24.22,13.96 22.62,15.42 20.12,15.42 C17.16,15.42 15.04,13.34 15.04,10.12 C15.04,6.48 17.42,4.1 20.38,4.1 Z M20.04,5.4 C18.82,5.4 18.22,6.72 18.08,8.26 L21.76,8.26 C21.74,6.56 21.2,5.4 20.04,5.4 Z M30.4,15.42 C28.7,15.42 27.3,14.96 26.36,14.3 L26.24,11.82 L27.76,11.82 C28.12,13.38 28.96,14.18 30.5,14.18 C31.54,14.18 32.26,13.76 32.26,12.94 C32.26,12.06 31.7,11.74 29.9,11.32 C27.48,10.74 26.26,9.74 26.26,7.72 C26.26,5.42 27.88,4.1 30.44,4.1 C31.84,4.1 33.12,4.46 34,5.02 L34,7.28 L32.52,7.28 C32.22,6.06 31.56,5.34 30.3,5.34 C29.34,5.34 28.82,5.86 28.82,6.56 C28.82,7.34 29.24,7.74 31.04,8.1 C33.2,8.56 34.76,9.46 34.76,11.68 C34.76,14.04 33.14,15.42 30.4,15.42 Z M41.9,14.08 C43.14,14.08 43.8,12.5 43.8,10.28 C43.8,7.54 42.98,5.42 41.54,5.42 C40.28,5.42 39.62,7.02 39.62,9.24 C39.62,11.98 40.44,14.08 41.9,14.08 Z M41.58,15.42 C38.3,15.42 36.16,13.06 36.16,9.94 C36.16,6.38 38.6,4.1 41.86,4.1 C45.14,4.1 47.28,6.46 47.28,9.56 C47.28,13.14 44.82,15.42 41.58,15.42 Z M53.08,0 L53.08,12.86 C53.08,13.78 53.46,13.88 54.36,14 L54.36,15.22 L48.44,15.22 L48.44,14 C49.36,13.88 49.72,13.78 49.72,12.86 L49.72,2.58 L48.54,1.5 L48.54,0.82 L52.46,0 L53.08,0 Z M63.2,15.42 L63.2,13.46 C62.44,14.38 61.22,15.42 59.46,15.42 C57.7,15.42 56.5,14.38 56.5,12.04 L56.5,7.24 C56.5,6.64 56.36,6.24 55.66,6.1 L55.36,6 L55.36,4.96 L59.28,4.1 L59.9,4.1 L59.9,11.7 C59.9,12.8 60.36,13.34 61.24,13.34 C62.04,13.34 62.62,13.12 63.2,12.86 L63.2,7.24 C63.2,6.64 63.06,6.24 62.36,6.1 L62.08,6 L62.08,4.96 L65.96,4.1 L66.6,4.1 L66.6,12.46 C66.6,13.14 66.76,13.48 67.42,13.52 L67.9,13.52 L67.9,14.76 L63.88,15.42 L63.2,15.42 Z M73.34,1.82 L73.34,4.3 L76.08,4.3 L76.08,5.72 L73.34,5.72 L73.34,12.04 C73.34,13.02 73.74,13.44 74.66,13.44 C75.16,13.44 75.72,13.3 76.2,13.04 L76.56,13.96 C75.64,14.9 74.44,15.42 73,15.42 C71,15.42 69.94,14.48 69.94,12.4 L69.94,5.72 L68.58,5.72 L68.58,4.72 C69.88,4.24 71.28,3.08 72.3,1.82 L73.34,1.82 Z M82.66,4.1 C85.5,4.1 86.98,6.14 86.98,8.66 L86.98,9.4 L80.32,9.4 C80.32,11.5 81.62,12.82 83.48,12.82 C84.8,12.82 85.72,12.3 86.42,11.4 L87.02,11.78 C86.5,13.96 84.9,15.42 82.4,15.42 C79.44,15.42 77.32,13.34 77.32,10.12 C77.32,6.48 79.7,4.1 82.66,4.1 Z M82.32,5.4 C81.1,5.4 80.5,6.72 80.36,8.26 L84.04,8.26 C84.02,6.56 83.48,5.4 82.32,5.4 Z"></path>
                <path d="M2.00300013,24.22 L2.00300013,27.09 L3.12300013,27.09 C4.20100013,27.09 4.56500013,26.544 4.56500013,25.662 C4.56500013,24.71 4.07500013,24.22 3.10900013,24.22 L2.00300013,24.22 Z M2.00300013,31.22 L0.505000125,31.22 L0.505000125,22.974 L3.15100013,22.974 C5.20900013,22.974 6.09100013,23.926 6.09100013,25.592 C6.09100013,27.272 5.11100013,28.322 3.29100013,28.322 L2.00300013,28.322 L2.00300013,31.22 Z M14.6030001,31.22 L12.9650001,31.22 C12.7410001,31.01 12.6430001,30.758 12.5730001,30.422 L12.2510001,29.064 C12.0270001,28.182 11.5930001,28.014 10.8510001,28.014 L9.84300011,28.014 L9.84300011,31.22 L8.34500011,31.22 L8.34500011,22.974 L11.3270001,22.974 C13.2030001,22.974 14.2110001,23.73 14.2110001,25.382 C14.2110001,26.67 13.3850001,27.356 12.3350001,27.44 L12.3350001,27.468 C13.1050001,27.58 13.5250001,27.916 13.7490001,28.756 L14.1690001,30.352 C14.2530001,30.674 14.3790001,30.954 14.6030001,31.22 Z M9.84300011,24.234 L9.84300011,26.782 L11.2570001,26.782 C12.1950001,26.782 12.6570001,26.39 12.6570001,25.508 C12.6570001,24.696 12.2090001,24.234 11.2570001,24.234 L9.84300011,24.234 Z M20.0070001,31.388 C17.6830001,31.388 16.2270001,29.848 16.2270001,27.104 C16.2270001,24.346 17.6830001,22.806 20.0070001,22.806 C22.3310001,22.806 23.7870001,24.346 23.7870001,27.104 C23.7870001,29.848 22.3310001,31.388 20.0070001,31.388 Z M20.0070001,24.122 C18.5510001,24.122 17.7950001,25.256 17.7950001,27.118 C17.7950001,28.966 18.5370001,30.1 20.0070001,30.1 C21.4770001,30.1 22.2330001,28.966 22.2330001,27.118 C22.2330001,25.256 21.4770001,24.122 20.0070001,24.122 Z M27.7210001,24.22 L27.7210001,27.09 L28.8410001,27.09 C29.9190001,27.09 30.2830001,26.544 30.2830001,25.662 C30.2830001,24.71 29.7930001,24.22 28.8270001,24.22 L27.7210001,24.22 Z M27.7210001,31.22 L26.2230001,31.22 L26.2230001,22.974 L28.8690001,22.974 C30.9270001,22.974 31.8090001,23.926 31.8090001,25.592 C31.8090001,27.272 30.8290001,28.322 29.0090001,28.322 L27.7210001,28.322 L27.7210001,31.22 Z M39.2990001,29.918 L39.2990001,31.22 L34.0630001,31.22 L34.0630001,22.974 L39.2990001,22.974 L39.2990001,24.276 L35.5610001,24.276 L35.5610001,26.446 L38.8650001,26.446 L38.8650001,27.72 L35.5610001,27.72 L35.5610001,29.918 L39.2990001,29.918 Z M48.0910001,31.22 L46.4530001,31.22 C46.2290001,31.01 46.1310001,30.758 46.0610001,30.422 L45.7390001,29.064 C45.5150001,28.182 45.0810001,28.014 44.3390001,28.014 L43.3310001,28.014 L43.3310001,31.22 L41.8330001,31.22 L41.8330001,22.974 L44.8150001,22.974 C46.6910001,22.974 47.6990001,23.73 47.6990001,25.382 C47.6990001,26.67 46.8730001,27.356 45.8230001,27.44 L45.8230001,27.468 C46.5930001,27.58 47.0130001,27.916 47.2370001,28.756 L47.6570001,30.352 C47.7410001,30.674 47.8670001,30.954 48.0910001,31.22 Z M43.3310001,24.234 L43.3310001,26.782 L44.7450001,26.782 C45.6830001,26.782 46.1450001,26.39 46.1450001,25.508 C46.1450001,24.696 45.6970001,24.234 44.7450001,24.234 L43.3310001,24.234 Z M53.0190001,31.22 L51.5350001,31.22 L51.5350001,24.276 L49.1830001,24.276 L49.1830001,22.974 L55.3990001,22.974 L55.3990001,24.276 L53.0190001,24.276 L53.0190001,31.22 Z M58.213,22.974 L59.403,25.368 C59.893,26.362 59.991,26.908 59.991,26.908 L60.047,26.908 C60.047,26.908 60.131,26.362 60.593,25.382 L61.727,22.974 L63.295,22.974 L60.747,28.224 L60.747,31.22 L59.249,31.22 L59.249,28.224 L56.519,22.974 L58.213,22.974 Z M71.905,31.22 L70.421,31.22 L70.421,24.276 L68.069,24.276 L68.069,22.974 L74.285,22.974 L74.285,24.276 L71.905,24.276 L71.905,31.22 Z M80.865,31.22 L80.137,29.148 L76.847,29.148 L76.119,31.22 L74.565,31.22 L77.561,22.974 L79.479,22.974 L82.475,31.22 L80.865,31.22 Z M77.813,26.348 L77.267,27.902 L79.689,27.902 L79.157,26.362 C78.695,25.06 78.513,24.136 78.513,24.136 L78.457,24.136 C78.457,24.136 78.261,25.046 77.813,26.348 Z M89.195,31.22 L87.781,29.078 C87.235,28.266 87.193,28 87.193,28 L87.137,28 C87.137,28 87.067,28.252 86.535,29.092 L85.163,31.22 L83.455,31.22 L86.297,27.062 L83.581,22.974 L85.345,22.974 L86.549,24.878 C87.151,25.83 87.179,26.054 87.179,26.054 L87.235,26.054 C87.235,26.054 87.263,25.83 87.837,24.892 L88.999,22.974 L90.665,22.974 L88.061,26.95 L90.889,31.22 L89.195,31.22 Z M95.887,29.288 L97.273,28.812 C97.427,29.764 98.071,30.24 98.925,30.24 C99.723,30.24 100.283,29.89 100.283,29.19 C100.283,28.518 99.947,28.21 98.687,27.762 C97.203,27.258 96.195,26.67 96.195,25.172 C96.195,23.408 97.567,22.792 98.911,22.792 C100.479,22.792 101.669,23.38 101.823,24.948 L100.339,25.284 C100.255,24.43 99.681,24.01 98.939,24.01 C98.239,24.01 97.735,24.36 97.735,25.06 C97.735,25.802 98.323,26.054 99.401,26.432 C100.829,26.922 101.823,27.454 101.823,29.008 C101.823,30.688 100.479,31.388 98.841,31.388 C97.217,31.388 96.209,30.786 95.887,29.288 Z M107.465,31.388 C105.141,31.388 103.685,29.848 103.685,27.104 C103.685,24.346 105.141,22.806 107.465,22.806 C109.789,22.806 111.245,24.346 111.245,27.104 C111.245,29.848 109.789,31.388 107.465,31.388 Z M107.465,24.122 C106.009,24.122 105.253,25.256 105.253,27.118 C105.253,28.966 105.995,30.1 107.465,30.1 C108.935,30.1 109.691,28.966 109.691,27.118 C109.691,25.256 108.935,24.122 107.465,24.122 Z M113.681,22.974 L115.179,22.974 L115.179,29.918 L118.707,29.918 L118.707,31.22 L113.681,31.22 L113.681,22.974 Z M125.357,22.974 L126.855,22.974 L126.855,28.504 C126.855,30.674 125.287,31.388 123.593,31.388 C121.913,31.388 120.345,30.674 120.345,28.504 L120.345,22.974 L121.843,22.974 L121.843,28.098 C121.843,29.484 122.403,30.156 123.593,30.156 C124.797,30.156 125.357,29.484 125.357,28.112 L125.357,22.974 Z M132.413,31.22 L130.929,31.22 L130.929,24.276 L128.577,24.276 L128.577,22.974 L134.793,22.974 L134.793,24.276 L132.413,24.276 L132.413,31.22 Z M136.767,22.974 L138.265,22.974 L138.265,31.22 L136.767,31.22 L136.767,22.974 Z M144.481,31.388 C142.157,31.388 140.701,29.848 140.701,27.104 C140.701,24.346 142.157,22.806 144.481,22.806 C146.805,22.806 148.261,24.346 148.261,27.104 C148.261,29.848 146.805,31.388 144.481,31.388 Z M144.481,24.122 C143.025,24.122 142.269,25.256 142.269,27.118 C142.269,28.966 143.011,30.1 144.481,30.1 C145.951,30.1 146.707,28.966 146.707,27.118 C146.707,25.256 145.951,24.122 144.481,24.122 Z M152.167,22.974 L155.303,27.454 C155.793,28.14 156.157,28.868 156.157,28.868 L156.213,28.868 C156.213,28.868 156.157,28.042 156.157,27.006 L156.157,22.974 L157.655,22.974 L157.655,31.22 L156.227,31.22 L153.063,26.782 C152.531,26.054 152.167,25.312 152.167,25.312 L152.111,25.312 C152.111,25.312 152.195,26.124 152.195,27.23 L152.195,31.22 L150.697,31.22 L150.697,22.974 L152.167,22.974 Z M159.853,29.288 L161.239,28.812 C161.393,29.764 162.037,30.24 162.891,30.24 C163.689,30.24 164.249,29.89 164.249,29.19 C164.249,28.518 163.913,28.21 162.653,27.762 C161.169,27.258 160.161,26.67 160.161,25.172 C160.161,23.408 161.533,22.792 162.877,22.792 C164.445,22.792 165.635,23.38 165.789,24.948 L164.305,25.284 C164.221,24.43 163.647,24.01 162.905,24.01 C162.205,24.01 161.701,24.36 161.701,25.06 C161.701,25.802 162.289,26.054 163.367,26.432 C164.795,26.922 165.789,27.454 165.789,29.008 C165.789,30.688 164.445,31.388 162.807,31.388 C161.183,31.388 160.175,30.786 159.853,29.288 Z"></path>
            </g>
        </g>
    </g>
</svg>
