<?xml version="1.0" encoding="UTF-8"?>
<svg width="20px" height="20px" viewBox="0 0 20 20" version="1.1" xmlns="http://www.w3.org/2000/svg" xmlns:xlink="http://www.w3.org/1999/xlink">
    <!-- Generator: Sketch 49.3 (51167) - http://www.bohemiancoding.com/sketch -->
    <title>Mask</title>
    <desc>Created with Sketch.</desc>
    <g stroke="none" stroke-width="1" fill="none" fill-rule="evenodd">
        <g transform="translate(-386.000000, -863.000000)" fill="#548BC5" fill-rule="nonzero">
            <g transform="translate(262.000000, 186.000000)">
                <g transform="translate(49.000000, 602.000000)">
                    <g transform="translate(75.000000, 75.000000)">
                        <path d="M10,20 C4.4771525,20 0,15.5228475 0,10 C0,4.4771525 4.4771525,0 10,0 C15.5228475,0 20,4.4771525 20,10 C20,15.5228475 15.5228475,20 10,20 Z M10,18 C14.418278,18 18,14.418278 18,10 C18,5.581722 14.418278,2 10,2 C5.581722,2 2,5.581722 2,10 C2,14.418278 5.581722,18 10,18 Z M8.58578644,6.58578644 C8.19526215,6.97631073 7.56209717,6.97631073 7.17157288,6.58578644 C6.78104858,6.19526215 6.78104858,5.56209717 7.17157288,5.17157288 C8.73367004,3.60947571 11.26633,3.60947571 12.8284271,5.17157288 C14.3905243,6.73367004 14.3905243,9.26632996 12.8279866,10.8288674 L10.7066662,12.9475468 C10.3158988,13.3378278 9.6827339,13.3374334 9.29245293,12.946666 C8.90217195,12.5558985 8.90256633,11.9227337 9.29333378,11.5324527 L11.4142136,9.41421356 C12.1952621,8.63316498 12.1952621,7.36683502 11.4142136,6.58578644 C10.633165,5.80473785 9.36683502,5.80473785 8.58578644,6.58578644 Z M10,16 C9.44771525,16 9,15.5522847 9,15 C9,14.4477153 9.44771525,14 10,14 C10.5522847,14 11,14.4477153 11,15 C11,15.5522847 10.5522847,16 10,16 Z"></path>
                    </g>
                </g>
            </g>
        </g>
    </g>
</svg>
