<?xml version="1.0" encoding="UTF-8"?>
<svg width="87px" height="84px" viewBox="0 0 87 84" version="1.1" xmlns="http://www.w3.org/2000/svg" xmlns:xlink="http://www.w3.org/1999/xlink">
    <!-- Generator: Sketch 52.4 (67378) - http://www.bohemiancoding.com/sketch -->
    <title>Group</title>
    <desc>Created with Sketch.</desc>
    <defs>
        <linearGradient x1="12.5267975%" y1="16.4515996%" x2="100%" y2="78.6156003%" id="linearGradient-1">
            <stop stop-color="#1AC7FB" offset="0%"></stop>
            <stop stop-color="#1D72F1" offset="100%"></stop>
        </linearGradient>
    </defs>
    <g id="Page-1" stroke="none" stroke-width="1" fill="none" fill-rule="evenodd">
        <g id="Mac-App-Store" transform="translate(-66.000000, -141.000000)" fill-rule="nonzero">
            <g id="Group" transform="translate(68.000000, 143.000000)">
                <ellipse id="Oval" stroke="#FFFFFF" stroke-width="3" fill="url(#linearGradient-1)" cx="41.5" cy="40" rx="41.5" ry="40"></ellipse>
                <g id="AppStore_new_logo" transform="translate(10.660550, 8.440367)" fill="#FFFFFF">
                    <path d="M25.9777827,0.00137409148 C25.3455608,0.0178057533 24.7078062,0.182744783 24.1195108,0.510207887 C22.2369632,1.55803754 21.5960607,3.86273994 22.6829354,5.67766678 L26.6263433,12.2622818 L14.0748312,33.220991 L3.55507333,33.220991 C2.21820784,33.3399961 1.07949166,34.0991139 0.471741837,35.1804169 C0.170414452,35.7165123 -1.29119465e-05,36.3311934 0,36.9861071 C-1.29119465e-05,39.0818038 1.74962427,40.7692234 3.92338919,40.7692359 L39.4634379,40.7692359 C40.4952135,38.6806845 39.9907579,36.2014081 37.9387862,34.5004822 C37.2482359,33.9280753 36.4991119,33.220991 35.6000996,33.220991 L23.1153113,33.220991 L39.6102312,5.67766678 C40.6971163,3.86273994 40.0561969,1.55804998 38.1736558,0.510207887 C37.5853617,0.182744783 36.9476097,0.0178306498 36.3153853,0.00137409148 C35.0401872,-0.0318626791 33.7891913,0.539374086 33.0138651,1.59605443 L31.1462502,4.71403695 L29.2793015,1.59605443 C28.5039817,0.539374086 27.2529794,-0.0318751273 25.9777827,0.00137409148 Z M36.9746215,14.446224 C36.2455665,14.6908565 35.5465331,15.3207867 34.9768942,16.3516245 C33.5544625,18.9255946 33.4635998,23.0019662 34.7113329,25.7640912 L49.9745215,51.2501963 C51.1346212,52.8293039 53.3594566,53.3216686 55.1336466,52.3341258 C57.016184,51.2862837 57.6564301,48.9816062 56.5695559,47.1666544 L52.7382426,40.7692359 L58.5065626,40.7692359 C60.5051,40.590193 62.059633,38.9785706 62.059633,37.0034849 C62.059633,34.9077758 60.3093537,33.2210034 58.1355745,33.220991 L48.2183354,33.220991 L36.9746215,14.446224 Z M10.5778087,42.1568026 C9.90366565,42.1568275 9.22967367,42.2385874 8.57807874,42.4006011 L5.7236115,47.1666544 C4.63672646,48.9815937 5.27697952,51.2862837 7.15952066,52.3341258 C8.93370345,53.3216686 11.1585429,52.8293039 12.3186451,51.2501963 L16.2854068,44.6263444 C16.0558569,44.3560809 15.7994412,44.0964856 15.5074001,43.8544173 C14.1418313,42.722475 12.3599207,42.1566905 10.5778087,42.1568026 Z" id="path869"></path>
                </g>
            </g>
        </g>
    </g>
</svg>