<?xml version="1.0" encoding="UTF-8"?>
<svg width="83px" height="80px" viewBox="0 0 83 80" version="1.1" xmlns="http://www.w3.org/2000/svg" xmlns:xlink="http://www.w3.org/1999/xlink">
    <!-- Generator: Sketch 52.4 (67378) - http://www.bohemiancoding.com/sketch -->
    <title>Group 4</title>
    <desc>Created with Sketch.</desc>
    <defs>
        <polygon id="path-1" points="0 40.8837167 60.8089745 40.8837167 60.8089745 0 0 0"></polygon>
        <polygon id="path-3" points="0 40.8837167 60.8089745 40.8837167 60.8089745 0 0 0"></polygon>
        <polygon id="path-5" points="0 40.8837167 60.8089745 40.8837167 60.8089745 0 0 0"></polygon>
        <polygon id="path-7" points="0 40.8837167 60.8089745 40.8837167 60.8089745 0 0 0"></polygon>
        <polygon id="path-9" points="0 40.8837167 60.8089745 40.8837167 60.8089745 0 0 0"></polygon>
        <polygon id="path-11" points="0 40.8837167 60.8089745 40.8837167 60.8089745 0 0 0"></polygon>
        <polygon id="path-13" points="0 40.8837167 60.8089745 40.8837167 60.8089745 0 0 0"></polygon>
        <polygon id="path-15" points="0 40.8837167 60.8089745 40.8837167 60.8089745 0 0 0"></polygon>
        <polygon id="path-17" points="0 40.8837167 60.8089745 40.8837167 60.8089745 0 0 0"></polygon>
        <polygon id="path-19" points="0 40.8837167 60.8089745 40.8837167 60.8089745 0 0 0"></polygon>
        <polygon id="path-21" points="0 40.8837167 60.8089745 40.8837167 60.8089745 0 0 0"></polygon>
        <polygon id="path-23" points="0 40.8837167 60.8089745 40.8837167 60.8089745 0 0 0"></polygon>
        <polygon id="path-25" points="0 40.8837167 60.8089745 40.8837167 60.8089745 0 0 0"></polygon>
        <polygon id="path-27" points="0 40.8837167 60.8089745 40.8837167 60.8089745 0 0 0"></polygon>
        <polygon id="path-29" points="0 40.8837167 60.8089745 40.8837167 60.8089745 0 0 0"></polygon>
        <polygon id="path-31" points="0 40.8837167 60.8089745 40.8837167 60.8089745 0 0 0"></polygon>
        <polygon id="path-33" points="0 40.8837167 60.8089745 40.8837167 60.8089745 0 0 0"></polygon>
        <polygon id="path-35" points="0 40.8837167 60.8089745 40.8837167 60.8089745 0 0 0"></polygon>
        <polygon id="path-37" points="0 40.8837167 60.8089745 40.8837167 60.8089745 0 0 0"></polygon>
        <polygon id="path-39" points="0 40.8837167 60.8089745 40.8837167 60.8089745 0 0 0"></polygon>
        <polygon id="path-41" points="0 40.8837167 60.8089745 40.8837167 60.8089745 0 0 0"></polygon>
        <polygon id="path-43" points="0 40.8837167 60.8089745 40.8837167 60.8089745 0 0 0"></polygon>
        <polygon id="path-45" points="0 40.8837167 60.8089745 40.8837167 60.8089745 0 0 0"></polygon>
        <polygon id="path-47" points="0 40.8837167 60.8089745 40.8837167 60.8089745 0 0 0"></polygon>
        <polygon id="path-49" points="0 40.8837167 60.8089745 40.8837167 60.8089745 0 0 0"></polygon>
        <polygon id="path-51" points="0 40.8837167 60.8089745 40.8837167 60.8089745 0 0 0"></polygon>
        <polygon id="path-53" points="0 40.8837167 60.8089745 40.8837167 60.8089745 0 0 0"></polygon>
        <polygon id="path-55" points="0 40.8837167 60.8089745 40.8837167 60.8089745 0 0 0"></polygon>
        <polygon id="path-57" points="0 40.8837167 60.8089745 40.8837167 60.8089745 0 0 0"></polygon>
        <polygon id="path-59" points="0 40.8837167 60.8089745 40.8837167 60.8089745 0 0 0"></polygon>
        <polygon id="path-61" points="0 40.8837167 60.8089745 40.8837167 60.8089745 0 0 0"></polygon>
        <polygon id="path-63" points="0 40.8837167 60.8089745 40.8837167 60.8089745 0 0 0"></polygon>
        <polygon id="path-65" points="0 40.8837167 60.8089745 40.8837167 60.8089745 0 0 0"></polygon>
        <polygon id="path-67" points="0 40.8837167 60.8089745 40.8837167 60.8089745 0 0 0"></polygon>
        <polygon id="path-69" points="0 40.8837167 60.8089745 40.8837167 60.8089745 0 0 0"></polygon>
        <polygon id="path-71" points="0 40.8837167 60.8089745 40.8837167 60.8089745 0 0 0"></polygon>
        <polygon id="path-73" points="0 40.8837167 60.8089745 40.8837167 60.8089745 0 0 0"></polygon>
        <polygon id="path-75" points="0 40.8837167 60.8089745 40.8837167 60.8089745 0 0 0"></polygon>
        <polygon id="path-77" points="0 40.8837167 60.8089745 40.8837167 60.8089745 0 0 0"></polygon>
        <polygon id="path-79" points="0 40.8837167 60.8089745 40.8837167 60.8089745 0 0 0"></polygon>
        <polygon id="path-81" points="0 40.8837167 60.8089745 40.8837167 60.8089745 0 0 0"></polygon>
        <polygon id="path-83" points="0 40.8837167 60.8089745 40.8837167 60.8089745 0 0 0"></polygon>
        <polygon id="path-85" points="0 40.8837167 60.8089745 40.8837167 60.8089745 0 0 0"></polygon>
        <polygon id="path-87" points="0 40.8837167 60.8089745 40.8837167 60.8089745 0 0 0"></polygon>
        <polygon id="path-89" points="0 40.8837167 60.8089745 40.8837167 60.8089745 0 0 0"></polygon>
        <polygon id="path-91" points="0 40.8837167 60.8089745 40.8837167 60.8089745 0 0 0"></polygon>
        <polygon id="path-93" points="0 40.8837167 60.8089745 40.8837167 60.8089745 0 0 0"></polygon>
        <polygon id="path-95" points="0 40.8837167 60.8089745 40.8837167 60.8089745 0 0 0"></polygon>
        <polygon id="path-97" points="0 40.8837167 60.8089745 40.8837167 60.8089745 0 0 0"></polygon>
        <polygon id="path-99" points="0 40.8837167 60.8089745 40.8837167 60.8089745 0 0 0"></polygon>
        <polygon id="path-101" points="0 40.8837167 60.8089745 40.8837167 60.8089745 0 0 0"></polygon>
        <polygon id="path-103" points="0 40.8837167 60.8089745 40.8837167 60.8089745 0 0 0"></polygon>
        <polygon id="path-105" points="0 40.8837167 60.8089745 40.8837167 60.8089745 0 0 0"></polygon>
        <polygon id="path-107" points="0 40.8837167 60.8089745 40.8837167 60.8089745 0 0 0"></polygon>
        <polygon id="path-109" points="0 40.8837167 60.8089745 40.8837167 60.8089745 0 0 0"></polygon>
        <polygon id="path-111" points="0 40.8837167 60.8089745 40.8837167 60.8089745 0 0 0"></polygon>
        <polygon id="path-113" points="0 40.8837167 60.8089745 40.8837167 60.8089745 0 0 0"></polygon>
        <polygon id="path-115" points="0 40.8837167 60.8089745 40.8837167 60.8089745 0 0 0"></polygon>
    </defs>
    <g id="Page-1" stroke="none" stroke-width="1" fill="none" fill-rule="evenodd">
        <g id="Mac-App-Store" transform="translate(-33.000000, -133.000000)">
            <g id="Group-4" transform="translate(33.000000, 133.000000)">
                <g id="Group-3" fill="#FFFFFF" fill-rule="nonzero">
                    <ellipse id="Oval" cx="41.5" cy="40" rx="41.5" ry="40"></ellipse>
                </g>
                <g id="Group" transform="translate(11.000000, 19.000000)">
                    <path d="M32,5 L18.3384137,5 C17.5992307,5 17,4.4055802 17,3.67233168 L17,1.32766832 C17,0.594419786 17.5992307,0 18.3384137,0 L32,0 L32,5 Z" id="Shape" fill="#FF9E47" fill-rule="nonzero"></path>
                    <path d="M31,1 L31,0 L18.2458207,0 C17.5808319,0 17.0387583,0.442394187 17,1 L31,1 Z" id="Shape" fill="#FFF8DC" fill-rule="nonzero"></path>
                    <path d="M14.2555213,13 L20,13 L20,6 L14.2555213,6 C12.4576271,6 11,7.55142524 11,9.46501367 L11,9.53498633 C11,11.4487114 12.4576271,13 14.2555213,13" id="Shape" fill="#007662" fill-rule="nonzero"></path>
                    <path d="M14.2555213,13 L20,13 L20,6 L14.2555213,6 C12.4576271,6 11,7.55142524 11,9.46501367 L11,9.53498633 C11,11.4487114 12.4576271,13 14.2555213,13 Z" id="Shape" stroke="#2B3554" stroke-width="2" stroke-linecap="round" stroke-linejoin="round"></path>
                    <path d="M32,5 L18.3384137,5 C17.5992307,5 17,4.4055802 17,3.67233168 L17,1.32766832 C17,0.594419786 17.5992307,0 18.3384137,0 L32,0 L32,5 Z" id="Shape" stroke="#2B3554" stroke-width="2" stroke-linecap="round" stroke-linejoin="round"></path>
                    <path d="M22,6 L22,5 L15.8349104,5 C14.666192,5 13.6341755,5.39527188 13,6 L22,6 Z" id="Shape" fill="#00D9AA" fill-rule="nonzero"></path>
                    <g id="Clipped">
                        <mask id="mask-2" fill="white">
                            <use xlink:href="#path-1"></use>
                        </mask>
                        <g id="m"></g>
                        <polygon id="Shape" fill="#FFFFFF" fill-rule="nonzero" mask="url(#mask-2)" points="23.1165755 4.35367773 42.2836656 4.35367773 42.2836656 1.08129849 23.1165755 1.08129849"></polygon>
                    </g>
                    <g id="Clipped">
                        <mask id="mask-4" fill="white">
                            <use xlink:href="#path-3"></use>
                        </mask>
                        <g id="m"></g>
                        <polygon id="Shape" stroke="#2B3554" stroke-width="2" stroke-linecap="round" stroke-linejoin="round" mask="url(#mask-4)" points="23.1165755 4.35367773 42.2836656 4.35367773 42.2836656 1.08129849 23.1165755 1.08129849"></polygon>
                    </g>
                    <g id="Clipped">
                        <mask id="mask-6" fill="white">
                            <use xlink:href="#path-5"></use>
                        </mask>
                        <g id="m"></g>
                        <path d="M15.0913046,12.2796388 L21.1596208,12.2796388 L21.1596208,5.30922877 L15.0913046,5.30922877 C13.1920565,5.30922877 11.6522576,6.85409592 11.6522576,8.75959535 L11.6522576,8.82927224 C11.6522576,10.7349078 13.1920565,12.2796388 15.0913046,12.2796388 Z" id="Shape" stroke="#2B3554" stroke-width="2" stroke-linecap="round" stroke-linejoin="round" mask="url(#mask-6)"></path>
                    </g>
                    <g id="Clipped">
                        <mask id="mask-8" fill="white">
                            <use xlink:href="#path-7"></use>
                        </mask>
                        <g id="m"></g>
                        <path d="M45.6282494,5.97117276 C45.6282494,5.61720875 45.3421822,5.33033598 44.9895149,5.33033598 L20.6907499,5.33033598 C19.2780467,5.33033598 17.6214607,6.87030395 17.6214607,8.77022382 L17.6214607,8.8397646 C17.6214607,10.7395484 19.2780467,12.2796524 20.6907499,12.2796524 L44.9895149,12.2796524 C45.3421822,12.2796524 45.6282494,11.9927796 45.6282494,11.6386795 L45.6282494,11.6257512 C45.6282494,11.2719233 45.3421822,10.9849144 44.9895149,10.9849144 L21.2090349,10.9849144 L21.2090349,6.625074 L44.9895149,6.625074 C45.3421822,6.625074 45.6282494,6.33806513 45.6282494,5.98410112 L45.6282494,5.97117276 Z" id="Shape" fill="#00D9AA" fill-rule="nonzero" mask="url(#mask-8)"></path>
                    </g>
                    <g id="Clipped">
                        <mask id="mask-10" fill="white">
                            <use xlink:href="#path-9"></use>
                        </mask>
                        <g id="m"></g>
                        <path d="M45.6282494,5.97117276 C45.6282494,5.61720875 45.3421822,5.33033598 44.9895149,5.33033598 L20.6907499,5.33033598 C19.2780467,5.33033598 17.6214607,6.87030395 17.6214607,8.77022382 L17.6214607,8.8397646 C17.6214607,10.7395484 19.2780467,12.2796524 20.6907499,12.2796524 L44.9895149,12.2796524 C45.3421822,12.2796524 45.6282494,11.9927796 45.6282494,11.6386795 L45.6282494,11.6257512 C45.6282494,11.2719233 45.3421822,10.9849144 44.9895149,10.9849144 L21.2090349,10.9849144 L21.2090349,6.625074 L44.9895149,6.625074 C45.3421822,6.625074 45.6282494,6.33806513 45.6282494,5.98410112 L45.6282494,5.97117276 Z" id="Shape" stroke="#2B3554" stroke-width="2" stroke-linecap="round" stroke-linejoin="round" mask="url(#mask-10)"></path>
                    </g>
                    <g id="Clipped">
                        <mask id="mask-12" fill="white">
                            <use xlink:href="#path-11"></use>
                        </mask>
                        <g id="m"></g>
                        <path d="M44.8435515,10.9849552 L21.2090213,10.9849552 C20.02094,10.9849552 19.0578875,10.0185968 19.0578875,8.826741 L19.0578875,8.78319297 C19.0578875,7.59133722 20.02094,6.62497873 21.2090213,6.62497873 L44.8435515,6.62497873 L44.8370409,6.64688886 C43.5476355,8.06601098 43.5476355,9.60489027 44.8370409,10.9631812 L44.8435515,10.9849552 Z" id="Shape" fill="#FFFFFF" fill-rule="nonzero" mask="url(#mask-12)"></path>
                    </g>
                    <g id="Clipped">
                        <mask id="mask-14" fill="white">
                            <use xlink:href="#path-13"></use>
                        </mask>
                        <g id="m"></g>
                        <path d="M44.1303637,7.69147053 C44.2913698,7.33913957 44.5257577,6.98939428 44.8370544,6.64686162 L44.843565,6.62495152 L21.2090349,6.62495152 C20.418518,6.62495152 19.7294606,7.0540359 19.3556335,7.69147053" id="Shape" fill="#EFEFEF" fill-rule="nonzero" mask="url(#mask-14)"></path>
                    </g>
                    <g id="Clipped">
                        <mask id="mask-16" fill="white">
                            <use xlink:href="#path-15"></use>
                        </mask>
                        <g id="m"></g>
                        <path d="M43.0809347,0.912998514 C43.0809347,0.559034505 42.7950031,0.272161714 42.4422005,0.272161714 L23.6282229,0.272161714 C22.9312984,0.272161714 22.3663528,0.838966827 22.3663528,1.53818523 L22.3663528,4.06424442 C22.3663528,4.76346283 22.9312984,5.33026794 23.6282229,5.33026794 L42.4422005,5.33026794 C42.7950031,5.33026794 43.0809347,5.04339514 43.0809347,4.68943113 L43.0809347,4.67650281 C43.0809347,4.3225388 42.7950031,4.03552992 42.4422005,4.03552992 L24.1497633,4.03552992 C23.913612,4.03552992 23.7223579,3.84364632 23.7223579,3.60671771 L23.7223579,1.99571195 C23.7223579,1.75878333 23.913612,1.56689973 24.1497633,1.56689973 L42.4422005,1.56689973 C42.7950031,1.56689973 43.0809347,1.27989085 43.0809347,0.925926843 L43.0809347,0.912998514 Z" id="Shape" fill="#00C5F8" fill-rule="nonzero" mask="url(#mask-16)"></path>
                    </g>
                    <g id="Clipped">
                        <mask id="mask-18" fill="white">
                            <use xlink:href="#path-17"></use>
                        </mask>
                        <g id="m"></g>
                        <path d="M43.0809347,0.912998514 C43.0809347,0.559034505 42.7950031,0.272161714 42.4422005,0.272161714 L23.6282229,0.272161714 C22.9312984,0.272161714 22.3663528,0.838966827 22.3663528,1.53818523 L22.3663528,4.06424442 C22.3663528,4.76346283 22.9312984,5.33026794 23.6282229,5.33026794 L42.4422005,5.33026794 C42.7950031,5.33026794 43.0809347,5.04339514 43.0809347,4.68943113 L43.0809347,4.67650281 C43.0809347,4.3225388 42.7950031,4.03552992 42.4422005,4.03552992 L24.1497633,4.03552992 C23.913612,4.03552992 23.7223579,3.84364632 23.7223579,3.60671771 L23.7223579,1.99571195 C23.7223579,1.75878333 23.913612,1.56689973 24.1497633,1.56689973 L42.4422005,1.56689973 C42.7950031,1.56689973 43.0809347,1.27989085 43.0809347,0.925926843 L43.0809347,0.912998514 Z" id="Shape" fill="#FFDE97" fill-rule="nonzero" mask="url(#mask-18)"></path>
                    </g>
                    <g id="Clipped">
                        <mask id="mask-20" fill="white">
                            <use xlink:href="#path-19"></use>
                        </mask>
                        <g id="m"></g>
                        <path d="M43.0809347,0.912998514 C43.0809347,0.559034505 42.7950031,0.272161714 42.4422005,0.272161714 L23.6282229,0.272161714 C22.9312984,0.272161714 22.3663528,0.838966827 22.3663528,1.53818523 L22.3663528,4.06424442 C22.3663528,4.76346283 22.9312984,5.33026794 23.6282229,5.33026794 L42.4422005,5.33026794 C42.7950031,5.33026794 43.0809347,5.04339514 43.0809347,4.68943113 L43.0809347,4.67650281 C43.0809347,4.3225388 42.7950031,4.03552992 42.4422005,4.03552992 L24.1497633,4.03552992 C23.913612,4.03552992 23.7223579,3.84364632 23.7223579,3.60671771 L23.7223579,1.99571195 C23.7223579,1.75878333 23.913612,1.56689973 24.1497633,1.56689973 L42.4422005,1.56689973 C42.7950031,1.56689973 43.0809347,1.27989085 43.0809347,0.925926843 L43.0809347,0.912998514 Z" id="Shape" stroke="#40515D" stroke-width="2" stroke-linecap="round" stroke-linejoin="round" mask="url(#mask-20)"></path>
                    </g>
                    <g id="Clipped">
                        <mask id="mask-22" fill="white">
                            <use xlink:href="#path-21"></use>
                        </mask>
                        <g id="m"></g>
                        <path d="M24.8056021,2.80121482 L41.9802201,2.80121482 L24.8056021,2.80121482 Z M44.8435515,10.9849552 L21.2090213,10.9849552 C20.02094,10.9849552 19.0578875,10.0185968 19.0578875,8.826741 L19.0578875,8.78319297 C19.0578875,7.59133722 20.02094,6.62497873 21.2090213,6.62497873 L44.8435515,6.62497873 L44.8370409,6.64688886 C43.5476355,8.06601098 43.5476355,9.60489027 44.8370409,10.9631812 L44.8435515,10.9849552 Z" id="Shape" stroke="#2B3554" stroke-width="2" stroke-linecap="round" stroke-linejoin="round" mask="url(#mask-22)"></path>
                    </g>
                    <g id="Clipped">
                        <mask id="mask-24" fill="white">
                            <use xlink:href="#path-23"></use>
                        </mask>
                        <g id="m"></g>
                        <path d="M21.0652688,6.63227302 C19.9446012,6.70671298 19.0579146,7.63986609 19.0579146,8.78313852 L19.0579146,8.82668659 C19.0579146,9.96995902 19.9446012,10.9031121 21.0652688,10.9776882 C19.2757544,10.9776882 19.2757544,6.63227302 21.0652688,6.63227302" id="Shape" fill="#ADC1D0" fill-rule="nonzero" mask="url(#mask-24)"></path>
                    </g>
                    <g id="Clipped">
                        <mask id="mask-26" fill="white">
                            <use xlink:href="#path-25"></use>
                        </mask>
                        <g id="m"></g>
                        <path d="M21.0652688,6.63227302 C19.9446012,6.70671298 19.0579146,7.63986609 19.0579146,8.78313852 L19.0579146,8.82668659 C19.0579146,9.96995902 19.9446012,10.9031121 21.0652688,10.9776882 C19.2757544,10.9776882 19.2757544,6.63227302 21.0652688,6.63227302 Z" id="Shape" stroke="#2B3554" stroke-width="2" stroke-linecap="round" stroke-linejoin="round" mask="url(#mask-26)"></path>
                    </g>
                    <g id="Clipped">
                        <mask id="mask-28" fill="white">
                            <use xlink:href="#path-27"></use>
                        </mask>
                        <g id="m"></g>
                        <path d="M43.6138962,8.89187255 L41.4333283,8.89187255" id="Shape" stroke="#2B3554" stroke-width="1.2" stroke-linecap="round" stroke-linejoin="round" mask="url(#mask-28)"></path>
                    </g>
                    <g id="Clipped">
                        <mask id="mask-30" fill="white">
                            <use xlink:href="#path-29"></use>
                        </mask>
                        <g id="m"></g>
                        <polygon id="Shape" fill="#00BCFB" fill-rule="nonzero" mask="url(#mask-30)" points="37.7727908 2.80117616 37.7727908 7.29130475 38.4708734 6.63753421 39.168956 7.29130475 39.168956 2.80117616"></polygon>
                    </g>
                    <g id="Clipped">
                        <mask id="mask-32" fill="white">
                            <use xlink:href="#path-31"></use>
                        </mask>
                        <g id="m"></g>
                        <polygon id="Shape" stroke="#2B3554" stroke-width="2" mask="url(#mask-32)" points="37.7727908 2.80117616 37.7727908 7.29130475 38.4708734 6.63753421 39.168956 7.29130475 39.168956 2.80117616"></polygon>
                    </g>
                    <g id="Clipped">
                        <mask id="mask-34" fill="white">
                            <use xlink:href="#path-33"></use>
                        </mask>
                        <g id="m"></g>
                        <path d="M9.92918025,40.6115249 L18.2506324,40.6115249 L18.2506324,31.053136 L9.92918025,31.053136 C7.32473349,31.053136 5.21334251,33.1714765 5.21334251,35.7844956 L5.21334251,35.8801653 C5.21334251,38.4933206 7.32473349,40.6115249 9.92918025,40.6115249" id="Shape" fill="#F34040" fill-rule="nonzero" mask="url(#mask-34)"></path>
                    </g>
                    <g id="Clipped">
                        <mask id="mask-36" fill="white">
                            <use xlink:href="#path-35"></use>
                        </mask>
                        <g id="m"></g>
                        <path d="M9.92918025,40.6115249 L18.2506324,40.6115249 L18.2506324,31.053136 L9.92918025,31.053136 C7.32473349,31.053136 5.21334251,33.1714765 5.21334251,35.7844956 L5.21334251,35.8801653 C5.21334251,38.4933206 7.32473349,40.6115249 9.92918025,40.6115249 Z" id="Shape" stroke="#2B3554" stroke-width="2" stroke-linecap="round" stroke-linejoin="round" mask="url(#mask-36)"></path>
                    </g>
                    <g id="Clipped">
                        <mask id="mask-38" fill="white">
                            <use xlink:href="#path-37"></use>
                        </mask>
                        <g id="m"></g>
                        <path d="M18.2505917,33.020324 L18.2505917,31.0531767 L9.92913954,31.0531767 C8.35434518,31.0531767 6.963209,31.8299652 6.10731302,33.020324 L18.2505917,33.020324 Z" id="Shape" fill="#FF8D80" fill-rule="nonzero" mask="url(#mask-38)"></path>
                    </g>
                    <g id="Clipped">
                        <mask id="mask-40" fill="white">
                            <use xlink:href="#path-39"></use>
                        </mask>
                        <g id="m"></g>
                        <path d="M9.92918025,40.6115249 L18.2506324,40.6115249 L18.2506324,31.053136 L9.92918025,31.053136 C7.32473349,31.053136 5.21334251,33.1714765 5.21334251,35.7844956 L5.21334251,35.8801653 C5.21334251,38.4933206 7.32473349,40.6115249 9.92918025,40.6115249 Z" id="Shape" stroke="#2B3554" stroke-width="2" stroke-linecap="round" stroke-linejoin="round" mask="url(#mask-40)"></path>
                    </g>
                    <g id="Clipped">
                        <mask id="mask-42" fill="white">
                            <use xlink:href="#path-41"></use>
                        </mask>
                        <g id="m"></g>
                        <path d="M51.8042376,31.9607863 C51.8042376,31.4753614 51.412099,31.0819321 50.9282666,31.0819321 L17.6077338,31.0819321 C15.6703705,31.0819321 13.3986516,33.1938765 13.3986516,35.7991388 L13.3986516,35.8944002 C13.3986516,38.4995263 15.6703705,40.6114707 17.6077338,40.6114707 L50.9282666,40.6114707 C51.412099,40.6114707 51.8042376,40.2180411 51.8042376,39.7327526 L51.8042376,39.714925 C51.8042376,39.2296366 51.412099,38.8360711 50.9282666,38.8360711 L18.3182225,38.8360711 L18.3182225,32.8573317 L50.9282666,32.8573317 C51.412099,32.8573317 51.8042376,32.4639023 51.8042376,31.9784777 L51.8042376,31.9607863 Z" id="Shape" fill="#FF8D80" fill-rule="nonzero" mask="url(#mask-42)"></path>
                    </g>
                    <g id="Clipped">
                        <mask id="mask-44" fill="white">
                            <use xlink:href="#path-43"></use>
                        </mask>
                        <g id="m"></g>
                        <path d="M51.8042376,31.9607863 C51.8042376,31.4753614 51.412099,31.0819321 50.9282666,31.0819321 L17.6077338,31.0819321 C15.6703705,31.0819321 13.3986516,33.1938765 13.3986516,35.7991388 L13.3986516,35.8944002 C13.3986516,38.4995263 15.6703705,40.6114707 17.6077338,40.6114707 L50.9282666,40.6114707 C51.412099,40.6114707 51.8042376,40.2180411 51.8042376,39.7327526 L51.8042376,39.714925 C51.8042376,39.2296366 51.412099,38.8360711 50.9282666,38.8360711 L18.3182225,38.8360711 L18.3182225,32.8573317 L50.9282666,32.8573317 C51.412099,32.8573317 51.8042376,32.4639023 51.8042376,31.9784777 L51.8042376,31.9607863 Z" id="Shape" stroke="#2B3554" stroke-width="2" stroke-linecap="round" stroke-linejoin="round" mask="url(#mask-44)"></path>
                    </g>
                    <g id="Clipped">
                        <mask id="mask-46" fill="white">
                            <use xlink:href="#path-45"></use>
                        </mask>
                        <g id="m"></g>
                        <path d="M50.7282366,38.8361389 L18.3182631,38.8361389 C16.6892123,38.8361389 15.3684739,37.5110534 15.3684739,35.8766407 L15.3684739,35.8167621 C15.3684739,34.1823493 16.6892123,32.8573998 18.3182631,32.8573998 L50.7282366,32.8573998 L50.7192844,32.8873389 L50.7192844,38.8061997 L50.7282366,38.8361389 Z" id="Shape" fill="#FFFFFF" fill-rule="nonzero" mask="url(#mask-46)"></path>
                    </g>
                    <g id="Clipped">
                        <mask id="mask-48" fill="white">
                            <use xlink:href="#path-47"></use>
                        </mask>
                        <g id="m"></g>
                        <path d="M50.8240128,34.3198657 C50.8240128,34.3198657 50.2924349,33.3571816 50.719298,32.8872711 L50.7282501,32.8573317 L18.3182767,32.8573317 C17.2342322,32.8573317 16.2894912,33.4457748 15.7767675,34.3198657" id="Shape" fill="#EFEFEF" fill-rule="nonzero" mask="url(#mask-48)"></path>
                    </g>
                    <g id="Clipped">
                        <mask id="mask-50" fill="white">
                            <use xlink:href="#path-49"></use>
                        </mask>
                        <g id="m"></g>
                        <path d="M0.271309534,40.6115249 L60.5376456,40.6115249 L0.271309534,40.6115249 Z M50.7282366,38.8361389 L18.3182631,38.8361389 C16.6892123,38.8361389 15.3684739,37.5110534 15.3684739,35.8766407 L15.3684739,35.8167621 C15.3684739,34.1823493 16.6892123,32.8573998 18.3182631,32.8573998 L50.7282366,32.8573998 L50.7192844,32.8873389 L50.7192844,38.8061997 L50.7282366,38.8361389 Z" id="Shape" stroke="#2B3554" stroke-width="2" stroke-linecap="round" stroke-linejoin="round" mask="url(#mask-50)"></path>
                    </g>
                    <g id="Clipped">
                        <mask id="mask-52" fill="white">
                            <use xlink:href="#path-51"></use>
                        </mask>
                        <g id="m"></g>
                        <path d="M18.2030359,32.8632378 C16.627699,32.9244774 15.3685417,34.2213927 15.3685417,35.8168844 L15.3685417,35.8766271 C15.3685417,37.4721188 16.627699,38.7690341 18.2030359,38.8302737 C15.8035431,38.8302737 15.8035431,32.8632378 18.2030359,32.8632378" id="Shape" fill="#ADC1D0" fill-rule="nonzero" mask="url(#mask-52)"></path>
                    </g>
                    <g id="Clipped">
                        <mask id="mask-54" fill="white">
                            <use xlink:href="#path-53"></use>
                        </mask>
                        <g id="m"></g>
                        <path d="M18.2030359,32.8632378 C16.627699,32.9244774 15.3685417,34.2213927 15.3685417,35.8168844 L15.3685417,35.8766271 C15.3685417,37.4721188 16.627699,38.7690341 18.2030359,38.8302737 C15.8035431,38.8302737 15.8035431,32.8632378 18.2030359,32.8632378 Z" id="Shape" stroke="#2B3554" stroke-width="2" stroke-linecap="round" stroke-linejoin="round" mask="url(#mask-54)"></path>
                    </g>
                    <g id="Clipped">
                        <mask id="mask-56" fill="white">
                            <use xlink:href="#path-55"></use>
                        </mask>
                        <g id="m"></g>
                        <g id="Group" mask="url(#mask-56)">
                            <g transform="translate(23.194531, 37.209309)" id="Shape">
                                <path d="M26.5599312,0.0181610644 L0.0556400217,0.0181610644" stroke="none" fill="#FFFFFF" fill-rule="nonzero"></path>
                                <path d="M26.5599312,0.0181610644 L0.0556400217,0.0181610644" stroke="#2B3554" stroke-width="1.2" fill="none" stroke-linecap="round" stroke-linejoin="round"></path>
                            </g>
                        </g>
                    </g>
                    <g id="Clipped">
                        <mask id="mask-58" fill="white">
                            <use xlink:href="#path-57"></use>
                        </mask>
                        <g id="m"></g>
                        <path d="M49.3940154,35.8467286 L36.9355067,35.8467286" id="Shape" stroke="#2B3554" stroke-width="1.2" stroke-linecap="round" stroke-linejoin="round" mask="url(#mask-58)"></path>
                    </g>
                    <g id="Clipped">
                        <mask id="mask-60" fill="white">
                            <use xlink:href="#path-59"></use>
                        </mask>
                        <g id="m"></g>
                        <path d="M32.3729705,30.9538872 L11.2525501,30.9538872 C10.1097729,30.9538872 9.18334352,30.0244086 9.18334352,28.87787 L9.18334352,25.2118044 C9.18334352,24.0652658 10.1097729,23.1357871 11.2525501,23.1357871 L32.3729705,23.1357871 L32.3729705,30.9538872 Z" id="Shape" fill="#FF8A32" fill-rule="nonzero" mask="url(#mask-60)"></path>
                    </g>
                    <g id="Clipped">
                        <mask id="mask-62" fill="white">
                            <use xlink:href="#path-61"></use>
                        </mask>
                        <g id="m"></g>
                        <path d="M32.3729705,25.1936775 L32.3729705,23.1357599 L11.2525501,23.1357599 C10.1158768,23.1357599 9.19419482,24.0555764 9.18429301,25.1936775 L32.3729705,25.1936775 Z" id="Shape" fill="#FFDE97" fill-rule="nonzero" mask="url(#mask-62)"></path>
                    </g>
                    <g id="Clipped">
                        <mask id="mask-64" fill="white">
                            <use xlink:href="#path-63"></use>
                        </mask>
                        <g id="m"></g>
                        <path d="M32.3729705,30.9538872 L11.2525501,30.9538872 C10.1097729,30.9538872 9.18334352,30.0244086 9.18334352,28.87787 L9.18334352,25.2118044 C9.18334352,24.0652658 10.1097729,23.1357871 11.2525501,23.1357871 L32.3729705,23.1357871 L32.3729705,30.9538872 Z" id="Shape" stroke="#2B3554" stroke-width="2" stroke-linecap="round" stroke-linejoin="round" mask="url(#mask-64)"></path>
                    </g>
                    <g id="Clipped">
                        <mask id="mask-66" fill="white">
                            <use xlink:href="#path-65"></use>
                        </mask>
                        <g id="m"></g>
                        <polygon id="Shape" fill="#FFFFFF" fill-rule="nonzero" mask="url(#mask-66)" points="18.9454036 29.4052966 48.6013265 29.4052966 48.6013265 24.3422371 18.9454036 24.3422371"></polygon>
                    </g>
                    <g id="Clipped">
                        <mask id="mask-68" fill="white">
                            <use xlink:href="#path-67"></use>
                        </mask>
                        <g id="m"></g>
                        <path d="M48.444527,26.6224074 C48.4920015,25.8758305 48.2805369,25.1151005 48.6013284,24.3422586 L18.9454138,24.3422586 L18.9454138,26.6224074 L48.444527,26.6224074 Z" id="Shape" fill="#EFEFEF" fill-rule="nonzero" mask="url(#mask-68)"></path>
                    </g>
                    <g id="Clipped">
                        <mask id="mask-70" fill="white">
                            <use xlink:href="#path-69"></use>
                        </mask>
                        <g id="m"></g>
                        <polygon id="Shape" stroke="#2B3554" stroke-width="2" stroke-linecap="round" stroke-linejoin="round" mask="url(#mask-70)" points="18.9454036 29.4052966 48.6013265 29.4052966 48.6013265 24.3422371 18.9454036 24.3422371"></polygon>
                    </g>
                    <g id="Clipped">
                        <mask id="mask-72" fill="white">
                            <use xlink:href="#path-71"></use>
                        </mask>
                        <g id="m"></g>
                        <path d="M49.8349851,24.0818549 C49.8349851,23.5342381 49.3925234,23.0901841 48.8465676,23.0901841 L19.7370159,23.0901841 C18.658804,23.0901841 17.7845964,23.9672691 17.7845964,25.049166 L17.7845964,28.9576037 C17.7845964,30.0393645 18.658804,30.9164494 19.7370159,30.9164494 L48.8465676,30.9164494 C49.3925234,30.9164494 49.8349851,30.4723955 49.8349851,29.9247786 L49.8349851,29.9047737 C49.8349851,29.3571571 49.3925234,28.9131031 48.8465676,28.9131031 L20.5439454,28.9131031 C20.1786636,28.9131031 19.8825589,28.6161597 19.8825589,28.2496758 L19.8825589,25.7569579 C19.8825589,25.3904739 20.1786636,25.0935306 20.5439454,25.0935306 L48.8465676,25.0935306 C49.3925234,25.0935306 49.8349851,24.6494765 49.8349851,24.1018598 L49.8349851,24.0818549 Z" id="Shape" fill="#00C5F8" fill-rule="nonzero" mask="url(#mask-72)"></path>
                    </g>
                    <g id="Clipped">
                        <mask id="mask-74" fill="white">
                            <use xlink:href="#path-73"></use>
                        </mask>
                        <g id="m"></g>
                        <path d="M49.8349851,24.0818549 C49.8349851,23.5342381 49.3925234,23.0901841 48.8465676,23.0901841 L19.7370159,23.0901841 C18.658804,23.0901841 17.7845964,23.9672691 17.7845964,25.049166 L17.7845964,28.9576037 C17.7845964,30.0393645 18.658804,30.9164494 19.7370159,30.9164494 L48.8465676,30.9164494 C49.3925234,30.9164494 49.8349851,30.4723955 49.8349851,29.9247786 L49.8349851,29.9047737 C49.8349851,29.3571571 49.3925234,28.9131031 48.8465676,28.9131031 L20.5439454,28.9131031 C20.1786636,28.9131031 19.8825589,28.6161597 19.8825589,28.2496758 L19.8825589,25.7569579 C19.8825589,25.3904739 20.1786636,25.0935306 20.5439454,25.0935306 L48.8465676,25.0935306 C49.3925234,25.0935306 49.8349851,24.6494765 49.8349851,24.1018598 L49.8349851,24.0818549 Z" id="Shape" fill="#FFDE97" fill-rule="nonzero" mask="url(#mask-74)"></path>
                    </g>
                    <g id="Clipped">
                        <mask id="mask-76" fill="white">
                            <use xlink:href="#path-75"></use>
                        </mask>
                        <g id="m"></g>
                        <path d="M49.8349851,24.0818549 C49.8349851,23.5342381 49.3925234,23.0901841 48.8465676,23.0901841 L19.7370159,23.0901841 C18.658804,23.0901841 17.7845964,23.9672691 17.7845964,25.049166 L17.7845964,28.9576037 C17.7845964,30.0393645 18.658804,30.9164494 19.7370159,30.9164494 L48.8465676,30.9164494 C49.3925234,30.9164494 49.8349851,30.4723955 49.8349851,29.9247786 L49.8349851,29.9047737 C49.8349851,29.3571571 49.3925234,28.9131031 48.8465676,28.9131031 L20.5439454,28.9131031 C20.1786636,28.9131031 19.8825589,28.6161597 19.8825589,28.2496758 L19.8825589,25.7569579 C19.8825589,25.3904739 20.1786636,25.0935306 20.5439454,25.0935306 L48.8465676,25.0935306 C49.3925234,25.0935306 49.8349851,24.6494765 49.8349851,24.1018598 L49.8349851,24.0818549 Z" id="Shape" stroke="#40515D" stroke-width="2" stroke-linecap="round" stroke-linejoin="round" mask="url(#mask-76)"></path>
                    </g>
                    <g id="Clipped">
                        <mask id="mask-78" fill="white">
                            <use xlink:href="#path-77"></use>
                        </mask>
                        <g id="m"></g>
                        <polygon id="Shape" fill="#FF6161" fill-rule="nonzero" mask="url(#mask-78)" points="23.1788318 29.7148203 25.3393961 29.7148203 25.3393961 26.8238524 23.1788318 26.8238524"></polygon>
                    </g>
                    <g id="Clipped">
                        <mask id="mask-80" fill="white">
                            <use xlink:href="#path-79"></use>
                        </mask>
                        <g id="m"></g>
                        <polygon id="Shape" stroke="#2B3554" stroke-width="2" stroke-linecap="round" stroke-linejoin="round" mask="url(#mask-80)" points="23.1788318 29.7148203 25.3393961 29.7148203 25.3393961 26.8238524 23.1788318 26.8238524"></polygon>
                    </g>
                    <g id="Clipped">
                        <mask id="mask-82" fill="white">
                            <use xlink:href="#path-81"></use>
                        </mask>
                        <g id="m"></g>
                        <g id="Group" mask="url(#mask-82)">
                            <g transform="translate(23.059191, 26.594626)" id="Shape">
                                <path d="M0.11996108,0.247643863 L9.0505779,0.247643863" stroke="none" fill="#00AC8F" fill-rule="nonzero"></path>
                                <path d="M0.11996108,0.247643863 L9.0505779,0.247643863" stroke="#2B3554" stroke-width="2" fill="none" stroke-linecap="round" stroke-linejoin="round"></path>
                            </g>
                        </g>
                    </g>
                    <g id="Clipped">
                        <mask id="mask-84" fill="white">
                            <use xlink:href="#path-83"></use>
                        </mask>
                        <g id="m"></g>
                        <path d="M46.5532275,14.2050751 C45.8740719,13.034449 44.8128153,12.1428027 43.4627783,12.1428027 L11.3461968,12.1428027 L11.3461968,13.5522626 L40.8195383,13.5522626 C41.8227406,13.5522626 42.7392681,14.1517287 43.1156726,15.0846097 C43.7681067,16.7013311 43.6532187,18.5922692 43.0829829,20.0924995 C42.7147172,21.0613076 41.7892372,21.7018722 40.7559226,21.7018722 L11.3461968,21.7018722 L11.3461968,23.1114682 L43.3771889,23.1113321 C44.7680536,23.1113321 46.0882495,22.2753456 46.5091441,20.9453609 C47.3251617,18.3660915 47.4038337,15.6710114 46.5532275,14.2050751" id="Shape" fill="#00BCFB" fill-rule="nonzero" mask="url(#mask-84)"></path>
                    </g>
                    <g id="Clipped">
                        <mask id="mask-86" fill="white">
                            <use xlink:href="#path-85"></use>
                        </mask>
                        <g id="m"></g>
                        <path d="M46.5532275,14.2050751 C45.8740719,13.034449 44.8128153,12.1428027 43.4627783,12.1428027 L11.3461968,12.1428027 L11.3461968,13.5522626 L40.8195383,13.5522626 C41.8227406,13.5522626 42.7392681,14.1517287 43.1156726,15.0846097 C43.7681067,16.7013311 43.6532187,18.5922692 43.0829829,20.0924995 C42.7147172,21.0613076 41.7892372,21.7018722 40.7559226,21.7018722 L11.3461968,21.7018722 L11.3461968,23.1114682 L43.3771889,23.1113321 C44.7680536,23.1113321 46.0882495,22.2753456 46.5091441,20.9453609 C47.3251617,18.3660915 47.4038337,15.6710114 46.5532275,14.2050751 Z" id="Shape" stroke="#2B3554" stroke-width="2" mask="url(#mask-86)"></path>
                    </g>
                    <g id="Clipped">
                        <mask id="mask-88" fill="white">
                            <use xlink:href="#path-87"></use>
                        </mask>
                        <g id="m"></g>
                        <polygon id="Shape" fill="#0091DE" fill-rule="nonzero" mask="url(#mask-88)" points="11.346075 23.1114666 21.8598103 23.1114666 21.8598103 21.7019265 11.346075 21.7019265"></polygon>
                    </g>
                    <g id="Clipped">
                        <mask id="mask-90" fill="white">
                            <use xlink:href="#path-89"></use>
                        </mask>
                        <g id="m"></g>
                        <polygon id="Shape" stroke="#2B3554" stroke-width="2" stroke-linecap="round" stroke-linejoin="round" mask="url(#mask-90)" points="11.346075 23.1114666 21.8598103 23.1114666 21.8598103 21.7019265 11.346075 21.7019265"></polygon>
                    </g>
                    <g id="Clipped">
                        <mask id="mask-92" fill="white">
                            <use xlink:href="#path-91"></use>
                        </mask>
                        <g id="m"></g>
                        <polygon id="Shape" fill="#0091DE" fill-rule="nonzero" mask="url(#mask-92)" points="11.346075 13.5523105 21.8598103 13.5523105 21.8598103 12.1427704 11.346075 12.1427704"></polygon>
                    </g>
                    <g id="Clipped">
                        <mask id="mask-94" fill="white">
                            <use xlink:href="#path-93"></use>
                        </mask>
                        <g id="m"></g>
                        <polygon id="Shape" stroke="#2B3554" stroke-width="2" stroke-linecap="round" stroke-linejoin="round" mask="url(#mask-94)" points="11.346075 13.5523105 21.8598103 13.5523105 21.8598103 12.1427704 11.346075 12.1427704"></polygon>
                    </g>
                    <g id="Clipped">
                        <mask id="mask-96" fill="white">
                            <use xlink:href="#path-95"></use>
                        </mask>
                        <g id="m"></g>
                        <path d="M13.0940286,13.5522762 L43.1209219,13.5522762 C44.1239886,13.5522762 45.0405161,14.1517424 45.4169204,15.0846233 C46.0693547,16.7013447 45.9544667,18.5922828 45.3842309,20.0925131 C45.0159652,21.0613212 44.0906209,21.7018858 43.0571704,21.7018858 L13.0940286,21.7018858 L13.0940286,13.5522762 Z" id="Shape" fill="#FFFFFF" fill-rule="nonzero" mask="url(#mask-96)"></path>
                    </g>
                    <g id="Clipped">
                        <mask id="mask-98" fill="white">
                            <use xlink:href="#path-97"></use>
                        </mask>
                        <g id="m"></g>
                        <path d="M45.2272942,14.7138116 C44.7810345,13.9964936 43.9834642,13.5523034 43.1209219,13.5523034 L23.7411849,13.5523034 L23.7411849,14.7138116 L45.2272942,14.7138116 Z" id="Shape" fill="#EFEFEF" fill-rule="nonzero" mask="url(#mask-98)"></path>
                    </g>
                    <g id="Clipped">
                        <mask id="mask-100" fill="white">
                            <use xlink:href="#path-99"></use>
                        </mask>
                        <g id="m"></g>
                        <polygon id="Shape" fill="#69CDF1" fill-rule="nonzero" mask="url(#mask-100)" points="13.0938529 21.7019265 23.1620497 21.7019265 23.1620497 13.5523105 13.0938529 13.5523105"></polygon>
                    </g>
                    <g id="Clipped">
                        <mask id="mask-102" fill="white">
                            <use xlink:href="#path-101"></use>
                        </mask>
                        <g id="m"></g>
                        <polygon id="Shape" stroke="#2B3554" stroke-width="2" stroke-linecap="round" stroke-linejoin="round" mask="url(#mask-102)" points="13.0938529 21.7019265 23.1620497 21.7019265 23.1620497 13.5523105 13.0938529 13.5523105"></polygon>
                    </g>
                    <g id="Clipped">
                        <mask id="mask-104" fill="white">
                            <use xlink:href="#path-103"></use>
                        </mask>
                        <g id="m"></g>
                        <path d="M45.4170425,15.0845961 C45.080381,14.2503787 44.3112954,13.6839818 43.4349178,13.5734787 C45.2245676,13.5734787 45.2245676,21.6728719 43.4349178,21.6728719 C44.3110241,21.5381452 45.0615271,20.9414007 45.3842174,20.0924859 C45.9544529,18.5922555 46.0694768,16.7013175 45.4170425,15.0845961" id="Shape" fill="#ADC1D0" fill-rule="nonzero" mask="url(#mask-104)"></path>
                    </g>
                    <g id="Clipped">
                        <mask id="mask-106" fill="white">
                            <use xlink:href="#path-105"></use>
                        </mask>
                        <g id="m"></g>
                        <path d="M45.4170425,15.0845961 C45.080381,14.2503787 44.3112954,13.6839818 43.4349178,13.5734787 C45.2245676,13.5734787 45.2245676,21.6728719 43.4349178,21.6728719 C44.3110241,21.5381452 45.0615271,20.9414007 45.3842174,20.0924859 C45.9544529,18.5922555 46.0694768,16.7013175 45.4170425,15.0845961 Z" id="Shape" stroke="#2B3554" stroke-width="2" stroke-linecap="round" stroke-linejoin="round" mask="url(#mask-106)"></path>
                    </g>
                    <g id="Clipped">
                        <mask id="mask-108" fill="white">
                            <use xlink:href="#path-107"></use>
                        </mask>
                        <g id="m"></g>
                        <g id="Group" mask="url(#mask-108)">
                            <g transform="translate(23.194531, 16.115851)" id="Shape">
                                <path d="M0.0978515642,0.215746243 L12.5162107,0.215746243" stroke="none" fill="#FFFFFF" fill-rule="nonzero"></path>
                                <path d="M0.0978515642,0.215746243 L12.5162107,0.215746243" stroke="#2B3554" stroke-width="1.2" fill="none" stroke-linecap="round" stroke-linejoin="round"></path>
                            </g>
                        </g>
                    </g>
                    <g id="Clipped">
                        <mask id="mask-110" fill="white">
                            <use xlink:href="#path-109"></use>
                        </mask>
                        <g id="m"></g>
                        <g id="Group" mask="url(#mask-110)">
                            <g transform="translate(23.194531, 17.476561)" id="Shape">
                                <path d="M0.0978515642,0.0425215857 L6.30709895,0.0425215857" stroke="none" fill="#FFFFFF" fill-rule="nonzero"></path>
                                <path d="M0.0978515642,0.0425215857 L6.30709895,0.0425215857" stroke="#2B3554" stroke-width="1.2" fill="none" stroke-linecap="round" stroke-linejoin="round"></path>
                            </g>
                        </g>
                    </g>
                    <g id="Clipped">
                        <mask id="mask-112" fill="white">
                            <use xlink:href="#path-111"></use>
                        </mask>
                        <g id="m"></g>
                        <g id="Group" mask="url(#mask-112)">
                            <g transform="translate(23.059191, 19.245811)" id="Shape">
                                <path d="M0.0576475115,0.229174112 L9.51997786,0.229174112" stroke="none" fill="#FFFFFF" fill-rule="nonzero"></path>
                                <path d="M0.0576475115,0.229174112 L9.51997786,0.229174112" stroke="#2B3554" stroke-width="1.2" fill="none" stroke-linecap="round" stroke-linejoin="round"></path>
                            </g>
                        </g>
                    </g>
                    <g id="Clipped">
                        <mask id="mask-114" fill="white">
                            <use xlink:href="#path-113"></use>
                        </mask>
                        <g id="m"></g>
                        <path d="M13.0940286,16.3682565 L16.4059799,16.3682565 M13.0940286,17.6270674 L15.1533334,17.6270674" id="Shape" stroke="#2B3554" stroke-width="1.2" stroke-linecap="round" stroke-linejoin="round" mask="url(#mask-114)"></path>
                    </g>
                    <g id="Clipped">
                        <mask id="mask-116" fill="white">
                            <use xlink:href="#path-115"></use>
                        </mask>
                        <g id="m"></g>
                        <path d="M13.0940286,13.5522762 L43.1209219,13.5522762 C44.1239886,13.5522762 45.0405161,14.1517424 45.4169204,15.0846233 C46.0693547,16.7013447 45.9544667,18.5922828 45.3842309,20.0925131 C45.0159652,21.0613212 44.0906209,21.7018858 43.0571704,21.7018858 L13.0940286,21.7018858 L13.0940286,13.5522762 Z" id="Shape" stroke="#2B3554" stroke-width="2" stroke-linecap="round" stroke-linejoin="round" mask="url(#mask-116)"></path>
                    </g>
                </g>
            </g>
        </g>
    </g>
</svg>