<?xml version="1.0" encoding="UTF-8"?>
<svg width="83px" height="80px" viewBox="0 0 83 80" version="1.1" xmlns="http://www.w3.org/2000/svg" xmlns:xlink="http://www.w3.org/1999/xlink">
    <!-- Generator: Sketch 49.3 (51167) - http://www.bohemiancoding.com/sketch -->
    <title>Twitter Circle Icon</title>
    <desc>Created with Sketch.</desc>
    <defs></defs>
    <g id="Page-1" stroke="none" stroke-width="1" fill="none" fill-rule="evenodd">
        <g id="Desktop-HD" transform="translate(-294.000000, -472.000000)">
            <g id="Twitter" transform="translate(294.000000, 472.000000)">
                <g id="Twitter-Circle-Icon">
                    <ellipse id="Oval" fill="#FFFFFF" cx="41.5" cy="40" rx="41.5" ry="40"></ellipse>
                    <g id="twitter" transform="translate(17.000000, 21.000000)" fill="#4AA0EC" fill-rule="nonzero">
                        <path d="M23.7347378,11.7931428 C20.6074931,3.40721994 34.6824237,-4.56525988 40.4818198,3.088293 C40.4818198,3.088293 42.7298741,3.01007873 46.8323448,0.871932861 C46.8323448,0.871932861 45.854073,3.89558224 42.6983401,5.89654964 C42.6983401,5.89654964 45.0967186,5.88146174 48,4.62916623 C48,4.62916623 46.1697717,7.50037582 43.3293791,9.42486318 C43.3293791,9.42486318 43.2663111,13.731851 42.6035588,16.4199247 C41.9409857,19.1079984 39.7318114,26.5917691 33.1046469,31.8456526 C26.4773032,37.099536 18.398498,38.260437 13.8224792,37.9548637 C9.24646045,37.6494639 3.6291018,35.9693311 0,33.8006626 C0,33.8006626 8.29972266,34.6559903 14.4221634,29.768552 C14.4221634,29.768552 8.23665459,30.0434292 5.30183911,23.140109 C5.30183911,23.140109 7.41623212,23.5065542 9.6882953,22.895581 C9.6882953,22.895581 1.89347557,21.5210215 1.79887346,13.3957551 C1.79887346,13.3957551 4.35510132,14.6177013 6.2485769,14.4954373 C6.2485769,14.4954373 -1.19918925,8.99719932 3.34511629,1.8798738 C3.34511629,1.8798738 10.7986159,11.4426527 23.7347378,11.7931428 Z" id="Shape"></path>
                    </g>
                </g>
            </g>
        </g>
    </g>
</svg>