<?xml version="1.0" encoding="UTF-8"?>
<svg width="83px" height="80px" viewBox="0 0 83 80" version="1.1" xmlns="http://www.w3.org/2000/svg" xmlns:xlink="http://www.w3.org/1999/xlink">
    <!-- Generator: Sketch 49.3 (51167) - http://www.bohemiancoding.com/sketch -->
    <title>YouTube Circle Icon</title>
    <desc>Created with Sketch.</desc>
    <defs></defs>
    <g id="Page-1" stroke="none" stroke-width="1" fill="none" fill-rule="evenodd">
        <g id="Desktop-HD" transform="translate(-522.000000, -472.000000)">
            <g id="YouTube" transform="translate(522.000000, 472.000000)">
                <g id="YouTube-Circle-Icon">
                    <ellipse id="Oval" fill="#FFFFFF" cx="41.5" cy="40" rx="41.5" ry="40"></ellipse>
                    <g id="YouTube_social_white_circle_(2017)" transform="translate(9.000000, 6.000000)" fill-rule="nonzero">
                        <rect id="rect4" fill-opacity="0" fill="#FFFFFF" x="0" y="0" width="67" height="67"></rect>
                        <g id="g4167" transform="translate(10.000000, 17.000000)" fill="#FF0000">
                            <path d="M23.0906584,0.535062641 C23.0906584,0.535062641 8.99677982,0.535075708 5.45940404,1.44817865 C3.56537098,1.97389582 2.0057818,3.52320724 1.47656598,5.43241006 C0.557403423,8.94643815 0.557382467,16.2237015 0.557382467,16.2237015 C0.557382467,16.2237015 0.557403423,23.5285906 1.47656598,26.9873097 C2.0057818,28.8964866 3.5375169,30.4181284 5.45940404,30.9438585 C9.02463391,31.8846208 23.0906584,31.8846562 23.0906584,31.8846562 C23.0906584,31.8846562 37.2124779,31.8846451 40.7497804,30.9715418 C42.6716813,30.4458228 44.2033852,28.9518443 44.7047503,27.014993 C45.651775,23.5285994 45.6518017,16.2513848 45.6518017,16.2513848 C45.6518017,16.2513848 45.6796333,8.94643815 44.7047503,5.43241006 C44.2033852,3.52320724 42.6716813,2.00160147 40.7497804,1.50354522 C37.2124779,0.535106935 23.0906584,0.535062641 23.0906584,0.535062641 Z M18.6062109,9.50012164 L30.3326584,16.2237015 L18.6062109,22.9195981 L18.6062109,9.50012164 Z" id="path4156"></path>
                        </g>
                    </g>
                </g>
            </g>
        </g>
    </g>
</svg>