<?xml version="1.0" encoding="utf-8"?>
<!-- Generator: Adobe Illustrator 16.0.0, SVG Export Plug-In . SVG Version: 6.00 Build 0)  -->
<!DOCTYPE svg PUBLIC "-//W3C//DTD SVG 1.1//EN" "http://www.w3.org/Graphics/SVG/1.1/DTD/svg11.dtd">
<svg version="1.1" id="Logo__x2014__FIXED" xmlns="http://www.w3.org/2000/svg" xmlns:xlink="http://www.w3.org/1999/xlink" x="0px"
	 y="0px" width="400px" height="400px" viewBox="0 0 400 400" enable-background="new 0 0 400 400" xml:space="preserve">
<g>
	<rect fill="none" width="400" height="400"/>
	<path fill="#1DA1F2" d="M153.623,301.589c94.344,0,145.936-78.161,145.936-145.936c0-2.221-0.045-4.432-0.146-6.631
		c10.015-7.239,18.72-16.272,25.588-26.557c-9.19,4.082-19.081,6.834-29.455,8.074c10.589-6.349,18.72-16.396,22.554-28.373
		c-9.913,5.875-20.886,10.149-32.568,12.45c-9.359-9.969-22.689-16.205-37.439-16.205c-28.328,0-51.299,22.971-51.299,51.288
		c0,4.026,0.451,7.939,1.331,11.695c-42.627-2.143-80.428-22.554-105.722-53.588c-4.409,7.578-6.947,16.385-6.947,25.779
		c0,17.795,9.056,33.504,22.825,42.694c-8.413-0.259-16.318-2.571-23.23-6.417c-0.011,0.214-0.011,0.429-0.011,0.654
		c0,24.843,17.682,45.582,41.15,50.285c-4.308,1.172-8.841,1.805-13.521,1.805c-3.304,0-6.518-0.327-9.642-0.926
		c6.529,20.378,25.463,35.207,47.916,35.625c-17.559,13.758-39.673,21.956-63.704,21.956c-4.139,0-8.221-0.237-12.235-0.711
		C97.701,293.098,124.653,301.589,153.623,301.589"/>
</g>
</svg>
